<svg width="53" height="1017" viewBox="0 0 53 1017" fill="none" xmlns="http://www.w3.org/2000/svg">
<line x1="27" y1="221" x2="27" y2="307" stroke="#D434FE" stroke-width="4"/>
<line x1="27" y1="8.74228e-08" x2="27" y2="137" stroke="#D434FE" stroke-width="4"/>
<line x1="27" y1="382" x2="27" y2="468" stroke="#D434FE" stroke-width="4"/>
<line x1="27" y1="543" x2="27" y2="629" stroke="#D434FE" stroke-width="4"/>
<line x1="27" y1="706" x2="27" y2="792" stroke="#D434FE" stroke-width="4"/>
<line x1="27" y1="867" x2="27" y2="953" stroke="#D434FE" stroke-width="4"/>
<rect y="148" width="53" height="53" rx="26.5" fill="url(#paint0_linear_21018_3)"/>
<path d="M24.528 183V167.64L26.208 169.32H21.168V166.2H28.416V183H24.528Z" fill="white"/>
<rect y="318" width="53" height="53" rx="26.5" fill="url(#paint1_linear_21018_3)"/>
<path d="M21.792 353V350.48L28.272 344.36C28.784 343.896 29.16 343.48 29.4 343.112C29.64 342.744 29.8 342.408 29.88 342.104C29.976 341.8 30.024 341.52 30.024 341.264C30.024 340.592 29.792 340.08 29.328 339.728C28.88 339.36 28.216 339.176 27.336 339.176C26.632 339.176 25.976 339.312 25.368 339.584C24.776 339.856 24.272 340.28 23.856 340.856L21.024 339.032C21.664 338.072 22.56 337.312 23.712 336.752C24.864 336.192 26.192 335.912 27.696 335.912C28.944 335.912 30.032 336.12 30.96 336.536C31.904 336.936 32.632 337.504 33.144 338.24C33.672 338.976 33.936 339.856 33.936 340.88C33.936 341.424 33.864 341.968 33.72 342.512C33.592 343.04 33.32 343.6 32.904 344.192C32.504 344.784 31.912 345.448 31.128 346.184L25.752 351.248L25.008 349.832H34.488V353H21.792Z" fill="white"/>
<rect y="479" width="53" height="53" rx="26.5" fill="url(#paint2_linear_21018_3)"/>
<path d="M27.384 514.288C26.216 514.288 25.056 514.136 23.904 513.832C22.752 513.512 21.776 513.064 20.976 512.488L22.488 509.512C23.128 509.976 23.872 510.344 24.72 510.616C25.568 510.888 26.424 511.024 27.288 511.024C28.264 511.024 29.032 510.832 29.592 510.448C30.152 510.064 30.432 509.536 30.432 508.864C30.432 508.224 30.184 507.72 29.688 507.352C29.192 506.984 28.392 506.8 27.288 506.8H25.512V504.232L30.192 498.928L30.624 500.32H21.816V497.2H33.576V499.72L28.92 505.024L26.952 503.896H28.08C30.144 503.896 31.704 504.36 32.76 505.288C33.816 506.216 34.344 507.408 34.344 508.864C34.344 509.808 34.096 510.696 33.6 511.528C33.104 512.344 32.344 513.008 31.32 513.52C30.296 514.032 28.984 514.288 27.384 514.288Z" fill="white"/>
<rect y="640" width="53" height="53" rx="26.5" fill="url(#paint3_linear_21018_3)"/>
<path d="M21.744 671.472V668.856L29.664 658.2H33.744L25.992 668.856L24.096 668.304H37.32V671.472H21.744ZM30.792 675V671.472L30.912 668.304V665.16H34.584V675H30.792Z" fill="white"/>
<rect y="803" width="53" height="53" rx="26.5" fill="url(#paint4_linear_21018_3)"/>
<path d="M26.648 837.288C25.48 837.288 24.32 837.136 23.168 836.832C22.032 836.512 21.056 836.064 20.24 835.488L21.776 832.512C22.416 832.976 23.152 833.344 23.984 833.616C24.832 833.888 25.688 834.024 26.552 834.024C27.528 834.024 28.296 833.832 28.856 833.448C29.416 833.064 29.696 832.528 29.696 831.84C29.696 831.408 29.584 831.024 29.36 830.688C29.136 830.352 28.736 830.096 28.16 829.92C27.6 829.744 26.808 829.656 25.784 829.656H21.488L22.352 820.2H32.6V823.32H23.744L25.76 821.544L25.16 828.288L23.144 826.512H26.696C28.36 826.512 29.696 826.744 30.704 827.208C31.728 827.656 32.472 828.272 32.936 829.056C33.4 829.84 33.632 830.728 33.632 831.72C33.632 832.712 33.384 833.632 32.888 834.48C32.392 835.312 31.624 835.992 30.584 836.52C29.56 837.032 28.248 837.288 26.648 837.288Z" fill="white"/>
<rect y="964" width="53" height="53" rx="26.5" fill="url(#paint5_linear_21018_3)"/>
<path d="M28.448 998.288C26.912 998.288 25.576 997.968 24.44 997.328C23.32 996.688 22.456 995.752 21.848 994.52C21.24 993.288 20.936 991.768 20.936 989.96C20.936 988.024 21.296 986.384 22.016 985.04C22.752 983.696 23.76 982.672 25.04 981.968C26.336 981.264 27.824 980.912 29.504 980.912C30.4 980.912 31.256 981.008 32.072 981.2C32.888 981.392 33.592 981.68 34.184 982.064L32.744 984.92C32.28 984.6 31.784 984.384 31.256 984.272C30.728 984.144 30.176 984.08 29.6 984.08C28.144 984.08 26.992 984.52 26.144 985.4C25.296 986.28 24.872 987.584 24.872 989.312C24.872 989.6 24.872 989.92 24.872 990.272C24.888 990.624 24.936 990.976 25.016 991.328L23.936 990.32C24.24 989.696 24.632 989.176 25.112 988.76C25.592 988.328 26.16 988.008 26.816 987.8C27.488 987.576 28.224 987.464 29.024 987.464C30.112 987.464 31.088 987.68 31.952 988.112C32.816 988.544 33.504 989.152 34.016 989.936C34.544 990.72 34.808 991.64 34.808 992.696C34.808 993.832 34.52 994.824 33.944 995.672C33.384 996.504 32.624 997.152 31.664 997.616C30.72 998.064 29.648 998.288 28.448 998.288ZM28.232 995.384C28.776 995.384 29.256 995.288 29.672 995.096C30.104 994.888 30.44 994.592 30.68 994.208C30.92 993.824 31.04 993.384 31.04 992.888C31.04 992.12 30.776 991.512 30.248 991.064C29.736 990.6 29.048 990.368 28.184 990.368C27.608 990.368 27.104 990.48 26.672 990.704C26.24 990.912 25.896 991.208 25.64 991.592C25.4 991.96 25.28 992.392 25.28 992.888C25.28 993.368 25.4 993.8 25.64 994.184C25.88 994.552 26.216 994.848 26.648 995.072C27.08 995.28 27.608 995.384 28.232 995.384Z" fill="white"/>
<defs>
<linearGradient id="paint0_linear_21018_3" x1="53" y1="148" x2="0" y2="148" gradientUnits="userSpaceOnUse">
<stop stop-color="#903AFF"/>
<stop offset="1" stop-color="#D434FE"/>
</linearGradient>
<linearGradient id="paint1_linear_21018_3" x1="53" y1="318" x2="0" y2="318" gradientUnits="userSpaceOnUse">
<stop stop-color="#903AFF"/>
<stop offset="1" stop-color="#D434FE"/>
</linearGradient>
<linearGradient id="paint2_linear_21018_3" x1="53" y1="479" x2="0" y2="479" gradientUnits="userSpaceOnUse">
<stop stop-color="#903AFF"/>
<stop offset="1" stop-color="#D434FE"/>
</linearGradient>
<linearGradient id="paint3_linear_21018_3" x1="53" y1="640" x2="0" y2="640" gradientUnits="userSpaceOnUse">
<stop stop-color="#903AFF"/>
<stop offset="1" stop-color="#D434FE"/>
</linearGradient>
<linearGradient id="paint4_linear_21018_3" x1="53" y1="803" x2="0" y2="803" gradientUnits="userSpaceOnUse">
<stop stop-color="#903AFF"/>
<stop offset="1" stop-color="#D434FE"/>
</linearGradient>
<linearGradient id="paint5_linear_21018_3" x1="53" y1="964" x2="0" y2="964" gradientUnits="userSpaceOnUse">
<stop stop-color="#903AFF"/>
<stop offset="1" stop-color="#D434FE"/>
</linearGradient>
</defs>
</svg>
